<svg width="235" height="36" viewBox="0 0 235 36" fill="none" xmlns="http://www.w3.org/2000/svg">
<path d="M0.852875 0.951874H5.74121V5.85539H0.852875V0.951874ZM30.2436 0.951874H10.6447V5.84021H25.3401V9.65068L19.2221 13.1879C15.4268 15.374 13.1041 19.4122 13.1041 23.7995V28.1262L9.82494 26.2285C7.30487 24.7711 5.74121 22.0841 5.74121 19.1693V10.7589H0.852875V19.6247C0.852875 23.9969 3.19077 28.0503 6.97088 30.2363L13.1041 33.7736L15.6545 35.2461L18.0076 33.895L24.1256 30.3578C27.9209 28.1717 30.2436 24.1335 30.2436 19.7462V0.951874ZM25.3553 19.2907C25.3553 22.2055 23.7916 24.9078 21.2715 26.3651L18.0076 28.2476V24.2701C18.0076 21.3554 19.5561 18.6531 22.0913 17.1957L25.3553 15.3133V19.2907Z" fill="#F34653"/>
<path fill-rule="evenodd" clip-rule="evenodd" d="M173.544 10.7285C173.544 16.2697 169.43 20.5052 164.041 20.5052H156.663V0.951874H164.041C169.43 0.951874 173.544 5.2026 173.544 10.7285ZM169.369 10.7285C169.369 7.37351 167.244 5.17224 164.162 5.17224H160.807V16.3H164.162C167.244 16.3 169.369 14.0836 169.369 10.7285ZM109.146 5.8704V20.5354H104.986V18.8199C104.075 19.8674 102.709 20.505 100.857 20.505C97.2283 20.505 94.2224 17.317 94.2224 13.1877C94.2224 9.05845 97.2283 5.8704 100.857 5.8704C102.709 5.8704 104.075 6.50801 104.986 7.55551V5.8704H109.146ZM104.986 13.2029C104.986 11.1231 103.604 9.81751 101.676 9.81751C99.7484 9.81751 98.3821 11.1231 98.3821 13.2029C98.3821 15.2827 99.7636 16.5883 101.676 16.5883C103.589 16.5883 104.986 15.2827 104.986 13.2029ZM92.9928 5.8704V10.6221C91.2621 10.3488 88.8028 11.0472 88.8028 13.8102V20.5354H84.5976V5.8704H88.8028V8.63338C89.3493 6.76609 91.2317 5.8704 92.9928 5.8704ZM199.17 20.5506L194.874 14.6148V20.5506H190.851V0.982068H194.874V11.7455L198.897 5.8704H203.588L198.699 12.9752L203.709 20.5354H199.17V20.5506ZM218.237 11.4267V20.5506H214.214V12.0188C214.214 10.3488 213.167 9.57461 211.876 9.57461C210.404 9.57461 209.387 10.4399 209.387 12.3376V20.5506H205.364V0.982068H209.402V7.50997C210.131 6.52319 211.467 5.8704 213.243 5.8704C215.93 5.8704 218.237 7.81359 218.237 11.4267ZM219.862 13.2029C219.862 9.07363 223.141 5.88558 227.209 5.88558C231.278 5.88558 234.557 9.07363 234.557 13.2029C234.557 17.3322 231.278 20.5202 227.209 20.5202C223.141 20.5202 219.862 17.3322 219.862 13.2029ZM230.398 13.2029C230.398 11.2294 229.016 9.92377 227.209 9.92377C225.403 9.92377 224.021 11.2294 224.021 13.2029C224.021 15.1765 225.403 16.482 227.209 16.482C229.016 16.482 230.413 15.1765 230.398 13.2029ZM184.611 16.224C183.973 16.6035 183.245 16.8161 182.501 16.8009C180.968 16.8009 179.692 16.3151 179.176 14.8729H189.044C189.165 14.3264 189.211 13.7647 189.211 13.203C189.211 9.01297 186.205 5.87047 182.152 5.87047C177.764 5.87047 174.759 9.05851 174.759 13.203C174.759 17.3474 177.719 20.5355 182.455 20.5355C185.097 20.5355 187.162 19.5639 188.513 17.6662L184.611 16.224ZM182.106 9.54431C183.351 9.54431 184.611 10.1364 185.051 11.7456H179.07C179.465 10.3337 180.527 9.54431 182.106 9.54431ZM148.313 16.8162C149.057 16.8314 149.785 16.6189 150.423 16.2394L154.325 17.6816C152.974 19.5792 150.909 20.5508 148.267 20.5508C143.516 20.5508 140.571 17.3628 140.571 13.2183C140.571 9.07385 143.576 5.8858 147.964 5.8858C152.017 5.8858 155.023 9.0283 155.023 13.2183C155.023 13.78 154.962 14.3417 154.856 14.8882H145.003C145.504 16.3304 146.78 16.8162 148.313 16.8162ZM150.863 11.7609C150.423 10.1517 149.163 9.55964 147.918 9.55964C146.339 9.55964 145.277 10.3491 144.882 11.7609H150.863ZM39.7069 20.5508V0.982275H35.2436V20.5508H39.7069ZM55.0702 20.5508V11.7913C55.0702 7.93525 52.6109 5.87061 49.7264 5.87061C47.844 5.87061 46.417 6.55376 45.6427 7.61644V5.87061H41.3616V20.5508H45.6427V12.7629C45.6427 10.7286 46.7358 9.81771 48.2994 9.81771C49.6809 9.81771 50.7891 10.6375 50.7891 12.4137V20.5508H55.0702ZM124.479 20.5508V11.7913C124.479 7.93525 122.019 5.87061 119.135 5.87061C117.252 5.87061 115.825 6.55376 115.051 7.61644V5.87061H110.77V20.5508H115.051V12.7629C115.051 10.7286 116.144 9.81771 117.708 9.81771C119.089 9.81771 120.197 10.6375 120.197 12.4137V20.5508H124.479ZM62.2661 20.5508C65.272 20.5508 68.0501 19.1845 68.0501 15.9964C68.0501 12.6957 65.2338 11.9491 63.2136 11.4136C62.084 11.1141 61.2034 10.8806 61.2034 10.3035C61.2034 9.80253 61.6437 9.52927 62.3724 9.52927C63.2984 9.52927 63.8449 10.0302 64.2396 10.7589L67.8072 8.84612C66.6383 6.87257 64.6344 5.87061 62.3875 5.87061C59.4879 5.87061 56.9375 7.38873 56.9375 10.425C56.9375 13.4896 59.7255 14.2681 61.7394 14.8304C62.8779 15.1483 63.769 15.3971 63.769 15.9509C63.769 16.5126 63.268 16.8162 62.2661 16.8162C61.0364 16.8162 60.2622 16.2393 59.8978 15.1767L56.2847 17.2413C57.3778 19.4881 59.4879 20.5508 62.2661 20.5508ZM82.9732 20.5356V5.87061H78.6921V13.6585C78.6921 15.6928 77.6143 16.6037 76.0354 16.6037C74.6539 16.6037 73.5457 15.7839 73.5457 14.0077V5.87061H69.2646V14.6301C69.2646 18.4862 71.724 20.5356 74.6084 20.5356C76.4908 20.5356 77.9179 19.8525 78.6921 18.7898V20.5356H82.9732ZM133.056 5.88579C128.836 5.88579 125.693 9.07384 125.693 13.2183C125.693 17.3476 128.836 20.5508 133.071 20.5508C135.804 20.5508 138.157 19.139 139.356 16.968L135.713 14.8882C135.257 15.8598 134.225 16.4367 133.01 16.4367C131.204 16.4367 129.853 15.1311 129.853 13.2183C129.853 11.3055 131.189 9.99989 132.995 9.99989C134.225 9.99989 135.227 10.5768 135.697 11.5484L139.341 9.43818C138.142 7.29764 135.758 5.88579 133.056 5.88579Z" fill="#333846"/>
</svg>
