<svg xmlns="http://www.w3.org/2000/svg" id="Layer_1" x="0" y="0" enable-background="new 0 0 600 500" version="1.1" viewBox="0 0 600 500" xml:space="preserve"><g id="No_Connection" fill="#000000" class="color000 svgShape"><path fill="#d2e4ff" d="M61.9,388c4.7,20.5,23.1,33.9,42.9,41.1h438.9c1.8-11.1,6.8-21.9,6.1-33.2c-1.8-30-23.8-41.8-29.9-71.1         c-3-14.5,98.9-183.8-27-237.4c-15.8-6.7-56-3.7-72.7,0.3c-16.7,4-33.1,9.8-50.2,11.3c-28.9,2.5,2.9-40.1-25-40.1         c-47.7-0.1-94.6,24.8-141.5,16c-16.3-3.1-31.6-10.5-47.9-13.2C128.2,57,87.5,59.1,70,76.9c-13.8,13.9-26,91.3-24.9,174         c0,0-1.5,18.2-1,26.1c1.1,16.8,14.8,29.9,18.9,46.2C68.4,344.1,57,366.8,61.9,388z" opacity=".3" class="colord2e4ff svgShape"/><path fill="#c6e2fa" d="M449 142.8h-35.2c-.2 0-.4-.2-.4-.4s.2-.4.4-.4H449c.2 0 .4.2.4.4S449.2 142.8 449 142.8zM449 160.3h-35.2c-.2 0-.4-.2-.4-.4s.2-.4.4-.4H449c.2 0 .4.2.4.4S449.2 160.3 449 160.3zM442.6 151.6h-49.8c-.2 0-.4-.2-.4-.4s.2-.4.4-.4h49.8c.2 0 .4.2.4.4S442.9 151.6 442.6 151.6z" class="colorc6e2fa svgShape"/><path fill="#c6e2fa" d="M421.1 142.8c-.2 0-.4-.2-.4-.4v-7.4c0-.2.2-.4.4-.4s.4.2.4.4v7.4C421.5 142.7 421.3 142.8 421.1 142.8zM433.5 151.6c-.2 0-.4-.2-.4-.4v-8.7c0-.2.2-.4.4-.4s.4.2.4.4v8.7C433.8 151.4 433.7 151.6 433.5 151.6zM424.1 160c-.2 0-.4-.2-.4-.4v-8.4c0-.2.2-.4.4-.4s.4.2.4.4v8.4C424.4 159.8 424.3 160 424.1 160zM293.2 87.8H258c-.2 0-.4-.2-.4-.4s.2-.4.4-.4h35.2c.2 0 .4.2.4.4S293.4 87.8 293.2 87.8zM293.2 105.2H258c-.2 0-.4-.2-.4-.4s.2-.4.4-.4h35.2c.2 0 .4.2.4.4S293.4 105.2 293.2 105.2zM286.8 96.5H237c-.2 0-.4-.2-.4-.4s.2-.4.4-.4h49.8c.2 0 .4.2.4.4S287 96.5 286.8 96.5z" class="colorc6e2fa svgShape"/><path fill="#c6e2fa" d="M265.3 87.8c-.2 0-.4-.2-.4-.4V80c0-.2.2-.4.4-.4s.4.2.4.4v7.4C265.6 87.6 265.5 87.8 265.3 87.8zM277.6 96.5c-.2 0-.4-.2-.4-.4v-8.7c0-.2.2-.4.4-.4s.4.2.4.4v8.7C278 96.4 277.8 96.5 277.6 96.5zM268.2 105c-.2 0-.4-.2-.4-.4v-8.4c0-.2.2-.4.4-.4s.4.2.4.4v8.4C268.6 104.8 268.4 105 268.2 105zM149.1 275.3h-35.2c-.2 0-.4-.2-.4-.4s.2-.4.4-.4h35.2c.2 0 .4.2.4.4S149.3 275.3 149.1 275.3zM149.1 292.7h-35.2c-.2 0-.4-.2-.4-.4s.2-.4.4-.4h35.2c.2 0 .4.2.4.4S149.3 292.7 149.1 292.7zM142.7 284H92.9c-.2 0-.4-.2-.4-.4s.2-.4.4-.4h49.8c.2 0 .4.2.4.4S142.9 284 142.7 284z" class="colorc6e2fa svgShape"/><path fill="#c6e2fa" d="M121.1 275.3c-.2 0-.4-.2-.4-.4v-7.4c0-.2.2-.4.4-.4s.4.2.4.4v7.4C121.5 275.1 121.3 275.3 121.1 275.3zM133.5 284c-.2 0-.4-.2-.4-.4v-8.7c0-.2.2-.4.4-.4s.4.2.4.4v8.7C133.9 283.8 133.7 284 133.5 284zM124.1 292.4c-.2 0-.4-.2-.4-.4v-8.4c0-.2.2-.4.4-.4s.4.2.4.4v8.4C124.5 292.3 124.3 292.4 124.1 292.4z" class="colorc6e2fa svgShape"/><g fill="#000000" class="color000 svgShape"><path fill="#ffffff" d="M412.7,127.1V339c0,7.8-6.6,14.5-15.3,14.5H160.9c-8.4,0-15.2-6.5-15.2-14.5V127.1H412.7z" class="colorfff svgShape"/><path d="M365 226.9c-3.3 3.3-8.6 3.3-11.8 0-16.1-16.1-36.4-25.8-57.4-28.9l-1.4 18c16.9 2.7 33.1 10.6 46.1 23.6 3.3 3.3 3.3 8.6 0 11.8-3.3 3.3-8.6 3.3-11.8 0-10.1-10.1-22.5-16.3-35.6-18.7l-1.6 20.1c8.4 1.9 16.4 6.2 23 12.7 3.3 3.3 3.3 8.6 0 11.8-3.3 3.3-8.6 3.3-11.8 0-3.8-3.8-8.4-6.4-13.3-7.8-1.7 3.1-4.9 5.2-8.6 5.2-3.7 0-7-2.1-8.6-5.2-4.9 1.4-9.4 4-13.3 7.8-3.2 3.3-8.6 3.3-11.8 0-3.3-3.3-3.3-8.6 0-11.8 6.6-6.5 14.6-10.8 23-12.7l-1.6-20.1c-13 2.4-25.5 8.6-35.6 18.7-3.3 3.3-8.6 3.3-11.8 0-3.3-3.3-3.3-8.6 0-11.8 13-13 29.2-20.9 46.1-23.6l-1.4-18c-21 3.1-41.3 12.7-57.4 28.9-3.3 3.3-8.5 3.3-11.8 0-3.3-3.3-3.3-8.6 0-11.8 19.2-19.2 43.3-30.5 68.4-33.8 1.1-7.7 7.8-13.7 15.9-13.7 8.1 0 14.8 6 15.9 13.7 25 3.3 49.2 14.6 68.4 33.8C368.3 218.3 368.3 223.6 365 226.9zM294.3 296c0 7.5-6.1 13.6-13.6 13.6-7.5 0-13.6-6.1-13.6-13.6 0-7.5 6.1-13.6 13.6-13.6C288.2 282.4 294.3 288.5 294.3 296z" opacity=".08" fill="#000000" class="color000 svgShape"/><path fill="#060405" d="M412.7,128.1v-9c0-8-6.7-14.5-15.3-14.5H160.9c-8.3,0-15.2,6.4-15.2,14.5v9H412.7z" class="color060405 svgShape"/><path fill="#ffffff" d="M163.3 118.5c0 1.8-1.5 3.3-3.4 3.3-1.9 0-3.4-1.5-3.4-3.3 0-1.8 1.5-3.3 3.4-3.3C161.7 115.2 163.3 116.7 163.3 118.5zM182.5 118.5c0 1.8-1.5 3.3-3.4 3.3-1.9 0-3.4-1.5-3.4-3.3 0-1.8 1.5-3.3 3.4-3.3C181 115.2 182.5 116.7 182.5 118.5zM172.9 118.5c0 1.8-1.5 3.3-3.4 3.3-1.9 0-3.4-1.5-3.4-3.3 0-1.8 1.5-3.3 3.4-3.3C171.3 115.2 172.9 116.7 172.9 118.5z" class="colorfff svgShape"/><g fill="#000000" class="color000 svgShape"><path fill="#d2e4ff" d="M245.5,273.1c-3.3-3.3-3.3-8.6,0-11.8c18.6-18.6,48.9-18.6,67.5,0c3.3,3.3,3.3,8.6,0,11.8           c-3.3,3.3-8.6,3.3-11.8,0c-12.1-12.1-31.7-12.1-43.8,0C254.1,276.3,248.8,276.3,245.5,273.1z" class="colord2e4ff svgShape"/><path fill="#d2e4ff" d="M219.5,247.1c-3.3-3.3-3.3-8.6,0-11.8c32.9-32.9,86.5-32.9,119.5,0c3.3,3.3,3.3,8.6,0,11.8           c-3.3,3.3-8.6,3.3-11.8,0c-26.4-26.4-69.4-26.4-95.8,0C228.1,250.3,222.8,250.3,219.5,247.1z" class="colord2e4ff svgShape"/><path fill="#d2e4ff" d="M194.9,222.5c-3.3-3.3-3.3-8.6,0-11.8c46.5-46.5,122.1-46.5,168.6,0c3.3,3.3,3.3,8.6,0,11.8           c-3.3,3.3-8.6,3.3-11.8,0c-40-40-105-40-145,0C203.5,225.8,198.2,225.8,194.9,222.5z" class="colord2e4ff svgShape"/><path fill="#6193f6" d="M292.9,291.6c0,7.5-6.1,13.6-13.6,13.6c-7.5,0-13.6-6.1-13.6-13.6c0-7.5,6.1-13.6,13.6-13.6           C286.8,278,292.9,284.1,292.9,291.6z" class="color6193f6 svgShape"/></g><g fill="#000000" class="color000 svgShape"><path fill="#6193f6" d="M279.2,270.4L279.2,270.4c-5.1,0-9.4-3.9-9.8-9l-6.3-80.9c-0.7-9.4,6.7-17.4,16.1-17.4h0         c9.4,0,16.8,8,16.1,17.4l-6.3,80.9C288.6,266.5,284.4,270.4,279.2,270.4z" class="color6193f6 svgShape"/></g></g><g fill="#000000" class="color000 svgShape"><path fill="#6193f6" d="M462,426.7v-3.2h18.8c0.2,6.1,0.7,17.6,0.9,17.6h-30.6C450,431.1,462,426.7,462,426.7z" class="color6193f6 svgShape"/><path fill="#060405" d="M451.5,436.8c-0.4,1.3-0.6,2.8-0.4,4.4h30.6c-0.1,0-0.2-1.8-0.3-4.4H451.5z" class="color060405 svgShape"/><path fill="#6193f6" d="M530.3,426.7v-3.2h18.8c0.2,6.1,0.7,17.6,0.9,17.6h-30.6C518.3,431.1,530.3,426.7,530.3,426.7z" class="color6193f6 svgShape"/><path fill="#060405" d="M519.7,436.8c-0.4,1.3-0.6,2.8-0.4,4.4H550c-0.1,0-0.2-1.8-0.3-4.4H519.7z" class="color060405 svgShape"/><g fill="#000000" class="color000 svgShape"><path fill="#060405" d="M460,425.6l7.4-141.8l39.8-0.8L482,425.6C482,427.2,460,427.2,460,425.6z" class="color060405 svgShape"/></g><g fill="#000000" class="color000 svgShape"><path fill="#060405" d="M527.9,426.8L489.4,278l43.7,3.7L550,426.8C550,428.3,527.9,428.3,527.9,426.8z" class="color060405 svgShape"/></g><g fill="#000000" class="color000 svgShape"><path fill="#ffffff" d="M469.2,160.1L454.9,203l5.1,1.1l6.9,23c0,0-33.7,2.3-38.6-10.3c-7-18.2,33.5-63.8,33.5-63.8          s0.5-10.3,9-10.9c8.5-0.6,1.7,12.5,1.7,12.5s2-0.7,3.4,2.5C477.5,160.4,469.2,160.1,469.2,160.1z" class="colorfff svgShape"/><path fill="#060405" d="M460.7,227.8c-10.1,0-29.1-1.3-32.8-10.8c-6.9-17.9,30.7-61,33.5-64.2c0.1-1.4,1.3-10.7,9.5-11.2          c6.5-0.4,5.4,6.5,2.6,12.5c0.8,0.1,2.1,0.7,3,2.9c0.4,0.9,0.2,1.5-0.1,1.9c-1.2,1.7-5.4,1.8-6.9,1.8l-14,42l4.9,1l7.2,23.9          l-0.6,0C466.6,227.6,464.2,227.8,460.7,227.8z M471,142.5c-8,0.6-8.6,10.4-8.6,10.5l0,0.2l-0.1,0.1          c-0.4,0.5-40.2,45.6-33.4,63.3c4.3,11.2,32.8,10.2,37.4,10l-6.6-22.1l-5.4-1.1l14.6-43.7l0.4,0c2.1,0.1,5.6-0.3,6.4-1.4          c0.1-0.2,0.2-0.4,0-0.9c-1.2-2.8-2.7-2.3-2.7-2.3l-1.2,0.4l0.6-1.1C474.9,149.2,476.8,142.1,471,142.5z" class="color060405 svgShape"/><path fill="#f2cb2a" d="M485.5,211.4l-20.7,17.4c-6.5-5.6-7.9-21.1-8.4-27.6c7.5-6.4,18.3-12.4,26.1-14.4L485.5,211.4z" class="colorf2cb2a svgShape"/><g fill="#000000" class="color000 svgShape"><path fill="#f2cb2a" d="M539.8,194.6c-3-7.5-22.2-12.3-22.2-12.3h-26.7c0,0-19.5,7.3-26.5,21.2c-4.8,9.4,0.9,84.4,0.9,84.4             c0,7,70.3,6.8,70.3-0.2C535.6,287.7,549.1,218,539.8,194.6z" class="colorf2cb2a svgShape"/><path fill="#ffffff" d="M511.5,148.7c0,0-2.5,22.3,6.1,33.7c0,0-8,13.8-20,13.4s-15-8.7-14.1-9.8              c0.9-1.1,11.1-6.9,11.1-19.1C494.7,154.6,511.5,148.7,511.5,148.7z" class="colorfff svgShape"/><path fill="#060405" d="M498,196.3c-0.1,0-0.3,0-0.4,0c-8-0.2-12.6-4.1-14.2-7.6c-0.5-1-0.8-2.4-0.3-3              c0.2-0.2,0.5-0.5,1.1-0.9c2.7-2.1,9.9-7.7,9.9-17.9c0-12.5,16.5-18.4,17.2-18.6l0.8-0.3l-0.1,0.8c0,0.2-2.4,22.2,6,33.3              l0.2,0.3l-0.2,0.3C517.7,183.2,509.9,196.3,498,196.3z M510.9,149.4c-3.2,1.3-15.8,7.1-15.8,17.4              c0,10.6-7.5,16.5-10.3,18.7c-0.4,0.3-0.8,0.7-0.9,0.8c-0.1,0.1-0.1,1,0.6,2.4c0.8,1.5,4,6.4,13.1,6.6              c10.6,0.3,18.1-11,19.3-12.9C509.4,172,510.6,153.6,510.9,149.4z" class="color060405 svgShape"/><path fill="#ffffff" d="M511.9,145c-0.1,1.4-0.2,2.6-0.4,3.6c-0.6,3.4-1.9,8.7-4.6,13.3v0c-3,5.2-9.1,9.4-16.6,8.3              c-10.5-1.6-7.4-29.2-3.9-40.5c0.7-2.3,1.5-3.9,2.3-4.6c4.6-3.8,19.7,2.5,21.5,7.3C511.6,136,512.1,141.1,511.9,145z" class="colorfff svgShape"/><path fill="#060405" d="M492.8,171c-0.8,0-1.7-0.1-2.5-0.2c-11.2-1.7-7.7-30.2-4.3-41.1c0.8-2.5,1.6-4.1,2.4-4.8              c4.9-4,20.3,2.4,22.3,7.5c1.5,3.8,1.8,9.1,1.7,12.8c-0.1,1.4-0.2,2.7-0.4,3.7c-1,5.3-2.5,9.8-4.6,13.3v0l-0.1,0.1              C504.9,166.4,499.7,171,492.8,171z M489.1,125.6c-0.4,0.3-1.2,1.3-2.1,4.3c-3.3,10.6-6.6,38.3,3.5,39.9              c7.6,1.2,13.4-3.5,16-7.9l0.1-0.1c2-3.5,3.5-7.9,4.5-13.1c0.2-1,0.3-2.2,0.4-3.5l0,0c0.2-3.6-0.2-8.7-1.6-12.4              C508,128.1,493.3,122.1,489.1,125.6z" class="color060405 svgShape"/><path fill="#060405" d="M523.4 124.8c7 11.2-2.1 28.2-11.9 38.4l-4.5-1.2v0c2.7-4.6 3.9-9.9 4.6-13.3.2-1 .3-2.3.4-3.6 0 0 .2-5.1-1.8-4.5-2.1.7-2.4 4.3-2.4 4.3h-2.6c0 0 .2-13.7-2.3-14.2-1.5-.3-10.1 1.3-17.4 2.1-3.4.4-10.6 1.2-13-9.5-3-13 6.2-14.6 12.8-14.1C504.6 110.4 519.9 119.2 523.4 124.8zM498.4 263.8c0 1.6-1.3 2.9-2.9 2.9h-66.2c-1.6 0-2.9-1.3-2.9-2.9s1.3-2.9 2.9-2.9h66.2C497.1 261 498.4 262.2 498.4 263.8z" class="color060405 svgShape"/><path fill="#ffffff" d="M466.7,261h-40.9c-2.2,0-4-1.5-4.6-3.5l-8.3-31.8c-0.8-3,1.5-5.9,4.6-5.9h40.9c2.1,0,4,1.5,4.6,3.6              l8.3,31.8C472.1,258,469.8,261,466.7,261z" class="colorfff svgShape"/><path fill="#060405" d="M466.7,261.5h-40.9c-2.4,0-4.4-1.6-5.1-3.9l-8.3-31.8c-0.9-3.3,1.6-6.6,5.1-6.6h40.9              c2.4,0,4.4,1.6,5.1,3.9l8.3,31.8C472.6,258.2,470.1,261.5,466.7,261.5z M417.5,220.1c-2.8,0-4.8,2.6-4.1,5.3l8.3,31.8              c0.5,1.9,2.2,3.2,4.1,3.2h40.9c2.8,0,4.8-2.6,4.1-5.3l-8.3-31.8c-0.5-1.9-2.2-3.2-4.1-3.2H417.5z" class="color060405 svgShape"/><path fill="#d2e4ff" d="M429.6,256.5c0.3,1.4,0.4,3,0,4.4h-3.8c-2.2,0-4-1.5-4.6-3.5l-8.3-31.8c-0.8-3,1.5-5.9,4.6-5.9h13.6             c-8.3,4.7-11.4,11.1-7,22.4C425.9,246.9,428.6,251.5,429.6,256.5z" class="colord2e4ff svgShape"/><path fill="#060405" d="M495.5,267.2h-66.2c-1.8,0-3.4-1.5-3.4-3.4s1.5-3.4,3.4-3.4h66.2c1.8,0,3.4,1.5,3.4,3.4             S497.3,267.2,495.5,267.2z M429.3,261.5c-1.3,0-2.4,1.1-2.4,2.4c0,1.3,1.1,2.4,2.4,2.4h66.2c1.3,0,2.4-1.1,2.4-2.4             c0-1.3-1.1-2.4-2.4-2.4H429.3z" class="color060405 svgShape"/><path fill="#060405" d="M466.7,261.5h-40.9c-2.4,0-4.5-1.6-5.1-3.9l-8.3-31.8c-0.9-3.3,1.6-6.6,5.1-6.6h40.9             c2.4,0,4.5,1.6,5.1,3.9l8.3,31.8C472.6,258.2,470.1,261.5,466.7,261.5z M417.5,220.1c-2.8,0-4.8,2.6-4.1,5.3l8.3,31.8             c0.5,1.9,2.2,3.2,4.1,3.2h40.9c2.8,0,4.8-2.6,4.1-5.3l-8.3-31.8c-0.5-1.9-2.2-3.2-4.1-3.2H417.5z" class="color060405 svgShape"/><g fill="#000000" class="color000 svgShape"><path fill="#d2e4ff" d="M443.9,240.8c0.2,1.8-1.2,3.3-3,3.3c-1.8,0-3.4-1.5-3.6-3.3c-0.2-1.8,1.2-3.3,3-3.3             C442.2,237.5,443.8,239,443.9,240.8z" class="colord2e4ff svgShape"/></g><g fill="#000000" class="color000 svgShape"><path fill="#ffffff" d="M553,267.2c-4.6,6.8-63.1,5.6-63.1,5.6s-15.9,6.5-21.3-1.4c-5.3-7.9,8.8-7.6,8.8-7.6s-3-1.2-1.1-4            c1.9-2.8,12.5,1.9,12.5,1.9l40.7-13.3l-1.9-20.3l25.9,0.8C553.5,228.9,558.4,259,553,267.2z" class="colorfff svgShape"/><path fill="#060405" d="M477.7,275.8c-3.7,0-7.4-1-9.5-4.1c-1.3-2-1.6-3.7-0.9-5c1.4-2.6,6.1-3.2,8.5-3.3            c-0.3-0.3-0.5-0.6-0.6-1c-0.3-0.9-0.1-1.8,0.6-2.8c2-3,11.2,0.9,12.9,1.7l40.1-13.2l-1.9-20.4l26.9,0.8l0.1,0.4            c0.2,1.2,4.9,30.3-0.6,38.6l0,0c-4.6,6.9-59.9,5.9-63.4,5.8C489,273.6,483.3,275.8,477.7,275.8z M468.1,267.1            c-0.6,1-0.3,2.4,0.8,4c5.1,7.4,20.5,1.2,20.7,1.2l0.1,0l0.1,0c16.2,0.3,59.1,0.1,62.7-5.4l0,0c5-7.5,1.1-33.9,0.5-37.5            l-25-0.7l1.9,20.1l-41.3,13.5l-0.2-0.1c-3.9-1.8-10.6-3.9-11.9-2.1c-0.5,0.7-0.7,1.4-0.5,1.9c0.3,0.9,1.3,1.3,1.3,1.3            l2.7,1l-2.8-0.1C474.8,264.3,469.4,264.8,468.1,267.1z" class="color060405 svgShape"/></g><g fill="#000000" class="color000 svgShape"><path fill="#f2cb2a" d="M537.3,191.3c0,0,13.9,7.6,17.3,37.2c-0.2,1.8-28.4,4-28.2,2.2C526.4,230.7,519.1,198.3,537.3,191.3            z" class="colorf2cb2a svgShape"/></g><g fill="#000000" class="color000 svgShape"><path fill="#060405" d="M531.5,231.9c-2.7,0-4.7-0.2-5.3-0.6c-0.2-0.1-0.3-0.3-0.3-0.6c-0.3-1.4-4.5-21.1,1.5-31.6l0.9,0.5            c-5.8,10.1-1.7,29.8-1.4,30.9c2.1,1.2,25.9-0.7,27.3-2.2c0,0,0,0.1-0.1,0.1l1,0.1c0,0.4-0.5,0.7-0.8,0.8            C551.7,230.6,539,231.9,531.5,231.9z" class="color060405 svgShape"/></g><g fill="#000000" class="color000 svgShape"><ellipse cx="498.6" cy="142.9" fill="#060405" rx="1.4" ry="1.9" class="color060405 svgShape"/></g><g fill="#000000" class="color000 svgShape"><ellipse cx="487.9" cy="142" fill="#060405" rx="1.4" ry="1.9" class="color060405 svgShape"/></g><g fill="#000000" class="color000 svgShape"><path fill="#060405" d="M490,150.6c-0.7-2.2,2.5-3.2,2.5-8h1c0,3.5-1.9,5.8-1.9,5.9c-0.4,0.5-0.9,1.2-0.7,1.8            c0.1,0.3,0.3,0.5,0.5,0.4l0.1,1C490.9,151.7,490.3,151.3,490,150.6z" class="color060405 svgShape"/></g></g></g></g><g fill="#000000" class="color000 svgShape"><path fill="#060405" d="M493.5,161.4l-1-0.2c0.5-2.9,3.9-4.3,6.3-2.5l-0.6,0.8C496.4,158.2,493.8,159.2,493.5,161.4z" class="color060405 svgShape"/></g><g fill="#000000" class="color000 svgShape"><path fill="#060405" d="M439.9,103.9c6.1,2,12.4,0.9,17.4-2.3l-3.1-4.2l0.7-0.5l0,0l0.7-0.5l3.1,4.3c3.2-2.5,5.7-5.9,7.1-10.1          c3.5-10.9-2.5-22.5-13.4-26c-10.9-3.5-22.5,2.5-26,13.4C423,88.7,429,100.4,439.9,103.9z" class="color060405 svgShape"/><polygon fill="#060405" points="467.5 109.3 466.1 110.3 455.3 95.8 456.7 94.7" class="color060405 svgShape"/></g><g fill="#000000" class="color000 svgShape"><path fill="#ffffff" d="M447.7 90.5c1.3 1.3.4 3.5-1.4 3.5-1.8 0-2.7-2.2-1.4-3.5C445.6 89.6 446.9 89.7 447.7 90.5zM452.9 79.4c0 4.4-5 4.8-5 7.9 0 .8-.8 1.5-1.6 1.5-.9 0-1.6-.7-1.6-1.5 0-.9.2-1.6.5-2.3 1.1-2.4 2.9-2.9 4.1-4.4.3-.3.4-.7.4-1.1 0-1.1-.4-2.5-3.4-2.5-1.1 0-2.3.3-3.2.8-.6.4-1.4.4-1.9-.2-.7-.7-.7-1.8.4-2.4 3.3-2.1 7.5-1.6 9.6.1C452.3 76.4 452.9 77.7 452.9 79.4z" class="colorfff svgShape"/></g><g fill="#000000" class="color000 svgShape"><path fill="#060405" d="M84.6,107.9c6.9,2.2,14,1,19.7-2.6l-3.5-4.7c0.1-0.1,1.8-1.3,1.7-1.2l3.6,4.8c3.6-2.8,6.5-6.7,8-11.4          c3.9-12.3-2.8-25.4-15.1-29.3c-12.3-3.9-25.4,2.8-29.4,15.1C65.6,90.9,72.3,104,84.6,107.9z" class="color060405 svgShape"/><polygon fill="#060405" points="115.7 114 114.2 115.2 102 98.8 103.5 97.6" class="color060405 svgShape"/></g><g opacity=".08" fill="#000000" class="color000 svgShape"><path d="M172.6,163.8v61.7c0,2.4-1.9,4.4-4.4,4.4H55.4c-2.4,0-4.4-2-4.4-4.4v-61.7c0-2.4,1.9-4.4,4.4-4.4h112.8         C170.7,159.5,172.6,161.4,172.6,163.8z" fill="#000000" class="color000 svgShape"/></g><g fill="#000000" class="color000 svgShape"><path fill="#ffffff" d="M166.8,166.8V221c0,2.4-1.9,4.4-4.4,4.4H49.6c-2.4,0-4.4-2-4.4-4.4v-54.2c0-2.4,1.9-4.4,4.4-4.4h112.8         C164.9,162.5,166.8,164.4,166.8,166.8z" class="colorfff svgShape"/><path fill="#060405" d="M166.8,166.8v7.5H45.3v-7.5c0-2.4,1.9-4.4,4.4-4.4h112.8C164.9,162.5,166.8,164.4,166.8,166.8z" class="color060405 svgShape"/><circle cx="53.5" cy="168.4" r="1.8" fill="#ffffff" class="colorfff svgShape"/><circle cx="60.2" cy="168.4" r="1.8" fill="#ffffff" class="colorfff svgShape"/><circle cx="66.9" cy="168.4" r="1.8" fill="#ffffff" class="colorfff svgShape"/></g><g fill="#000000" class="color000 svgShape"><path fill="#ff7545" d="M59.1 198.5c-.5-.3-1.1-.4-1.8-.4h-2.4c-.2 0-.4.1-.6.3-.2.2-.2.4-.2.6v6.5c0 .2.1.4.2.6l0 0c.2.2.4.2.6.2.2 0 .4-.1.6-.2.2-.2.3-.4.3-.6v-1.9h1.6c.7 0 1.3-.1 1.8-.4.5-.3.9-.6 1.1-1 .2-.4.3-.9.3-1.3s-.1-.9-.3-1.3C60 199.1 59.6 198.7 59.1 198.5zM58.8 200.8c0 .3-.1.6-.3.8-.2.2-.7.3-1.3.3h-1.5v-2.1h1.5c.6 0 1.1.1 1.3.3C58.7 200.3 58.8 200.5 58.8 200.8zM65.8 198.7c-.1-.2-.2-.3-.4-.5-.2-.1-.4-.2-.6-.2h-.1c-.2 0-.4.1-.6.2-.1.1-.3.3-.4.5l-2.7 6.4c-.1.1-.1.2-.1.4 0 .2.1.4.2.6h0c.3.3.7.3 1.1.1.1-.1.2-.2.3-.4l.6-1.4h3.1l.6 1.4c.1.2.2.3.3.4.1.1.3.1.5.1.2 0 .5-.1.6-.3.2-.2.2-.4.2-.6 0-.1 0-.2-.1-.4L65.8 198.7zM64 202.7l.9-2.1.9 2.1H64zM76.1 201.5H74c-.2 0-.4.1-.6.2-.2.2-.2.4-.2.6 0 .2.1.4.2.6.2.2.4.2.6.2h1.4v1.3c-.9.4-2.1.4-2.8 0-.4-.2-.7-.5-.9-.9-.2-.4-.3-.8-.3-1.3 0-.5.1-1 .3-1.4.2-.4.5-.7.9-.8.7-.3 1.6-.4 2.3-.2.3.1.6.2.9.4.3.2.7.1 1-.1.1-.2.2-.4.2-.6 0-.2 0-.3-.1-.4-.1-.1-.2-.2-.3-.3-.4-.3-.8-.5-1.3-.6-.5-.1-1-.2-1.6-.2-.8 0-1.4.2-2.1.5-.6.4-1.1.9-1.5 1.5-.4.6-.5 1.4-.5 2.2 0 .8.2 1.5.5 2.2.3.6.8 1.1 1.5 1.5.6.4 1.3.5 2.1.5.9 0 1.8-.2 2.6-.6.2-.1.3-.2.4-.4.1-.2.2-.4.2-.6v-2.4c0-.2-.1-.5-.3-.6C76.6 201.5 76.3 201.5 76.1 201.5zM84.1 199.8c.2 0 .4-.1.6-.2.2-.2.2-.4.2-.6 0-.2-.1-.4-.2-.6-.2-.2-.4-.2-.6-.2h-4.3c-.2 0-.4.1-.6.3-.2.2-.2.4-.2.6v6.5c0 .2.1.4.2.6.2.2.4.2.6.2h4.3c.2 0 .4-.1.6-.2.2-.2.2-.4.2-.6 0-.2-.1-.4-.2-.6-.2-.2-.4-.2-.6-.2h-3.4V203h3c.2 0 .4-.1.6-.2.2-.2.2-.4.2-.6 0-.2-.1-.4-.2-.6-.2-.2-.4-.2-.6-.2h-3v-1.6H84.1zM95.9 198.3c-.2.2-.2.4-.2.6v4.5l-3.4-4.9c-.3-.4-.6-.5-.9-.5h-.1c-.3 0-.6.1-.8.3-.2.2-.3.5-.3.8v6.4c0 .2.1.4.2.6l0 0c.3.3.9.3 1.2 0 .2-.2.3-.4.3-.6v-4.6l3.4 5c.1.1.2.2.4.3.2.1.3.1.5.1h.1c.3 0 .6-.1.8-.3.2-.2.3-.5.3-.8v-6.4c0-.2-.1-.4-.3-.6C96.8 198 96.2 198 95.9 198.3zM105.3 198.5c-1.2-.7-3.1-.7-4.3 0-.6.4-1.1.9-1.4 1.5-.3.6-.5 1.3-.5 2.2 0 .8.2 1.5.5 2.1.3.6.8 1.1 1.4 1.5h0c.6.4 1.3.5 2.1.5.8 0 1.5-.2 2.1-.5.6-.4 1.1-.9 1.4-1.5.3-.6.5-1.3.5-2.2 0-.8-.2-1.5-.5-2.1C106.4 199.4 105.9 198.9 105.3 198.5zM105.5 202.2c0 .5-.1.9-.3 1.3-.2.4-.5.7-.8.9h0c-.7.4-1.9.4-2.6 0-.4-.2-.6-.5-.8-.9-.2-.4-.3-.8-.3-1.3 0-.5.1-.9.3-1.3.2-.4.5-.7.8-.9.4-.2.8-.3 1.3-.3.5 0 .9.1 1.3.3.4.2.6.5.8.9C105.4 201.3 105.5 201.7 105.5 202.2zM113.8 198.1h-5.3c-.2 0-.4.1-.6.2-.2.2-.2.4-.2.6 0 .2.1.4.2.6.2.2.4.2.6.2h1.8v5.7c0 .2.1.4.2.6l0 0c.2.2.4.2.6.2.2 0 .4-.1.6-.2.2-.2.3-.4.3-.6v-5.7h1.8c.2 0 .4-.1.6-.2.2-.2.2-.4.2-.6 0-.2-.1-.4-.2-.6C114.3 198.2 114.1 198.1 113.8 198.1zM124.5 198.1h-4.1c-.2 0-.4.1-.6.3-.2.2-.2.4-.2.6v6.5c0 .2.1.4.2.6l0 0c.2.2.4.2.6.2.2 0 .4-.1.6-.2.2-.2.3-.4.3-.6V203h2.9c.2 0 .4-.1.6-.2.2-.2.2-.4.2-.6 0-.2-.1-.4-.2-.6-.2-.2-.4-.2-.6-.2h-2.9v-1.6h3.3c.2 0 .4-.1.6-.2.2-.2.2-.4.2-.6 0-.2-.1-.4-.2-.6C124.9 198.2 124.7 198.1 124.5 198.1zM132.3 198.5c-1.2-.7-3.1-.7-4.3 0-.6.4-1.1.9-1.4 1.5-.3.6-.5 1.3-.5 2.2 0 .8.2 1.5.5 2.1.3.6.8 1.1 1.4 1.5h0c.6.4 1.3.5 2.1.5.8 0 1.5-.2 2.1-.5.6-.4 1.1-.9 1.4-1.5.3-.6.5-1.3.5-2.2 0-.8-.2-1.5-.5-2.1C133.4 199.4 132.9 198.9 132.3 198.5zM132.6 202.2c0 .5-.1.9-.3 1.3-.2.4-.5.7-.8.9h0c-.7.4-1.9.4-2.6 0-.4-.2-.6-.5-.8-.9-.2-.4-.3-.8-.3-1.3 0-.5.1-.9.3-1.3.2-.4.5-.7.8-.9.4-.2.8-.3 1.3-.3.5 0 .9.1 1.3.3.4.2.6.5.8.9C132.5 201.3 132.6 201.7 132.6 202.2zM141.3 198.3c-.2.2-.2.4-.2.6v4.2c0 .3-.1.6-.2.9-.2.2-.4.4-.6.5-.5.2-1.2.2-1.7 0-.3-.1-.5-.3-.6-.5-.2-.2-.2-.5-.2-.9v-4.2c0-.2-.1-.4-.3-.6-.3-.3-.9-.3-1.2 0-.2.2-.2.4-.2.6v4.2c0 .7.2 1.3.5 1.8.3.5.8.9 1.3 1.1.5.2 1.1.4 1.6.4s1.1-.1 1.6-.4c.5-.2 1-.6 1.3-1.1.3-.5.5-1.1.5-1.8v-4.2c0-.2-.1-.4-.3-.6C142.2 198 141.6 198 141.3 198.3zM150.6 198.3c-.2.2-.2.4-.2.6v4.5l-3.4-4.9c-.3-.4-.6-.5-.9-.5h-.1c-.3 0-.6.1-.8.3-.2.2-.3.5-.3.8v6.4c0 .2.1.4.2.6l0 0c.3.3.9.3 1.2 0 .2-.2.3-.4.3-.6v-4.6l3.4 5c.1.1.2.2.4.3.2.1.3.1.5.1h.1c.3 0 .6-.1.8-.3.2-.2.3-.5.3-.8v-6.4c0-.2-.1-.4-.3-.6C151.5 198 150.9 198 150.6 198.3zM160.8 200.2c-.3-.6-.8-1.1-1.4-1.5-.6-.4-1.4-.6-2.3-.6H155c-.2 0-.4.1-.6.3-.2.2-.2.4-.2.6v6.5c0 .2.1.4.2.6.2.2.4.2.6.2h2.1c.9 0 1.6-.2 2.3-.6.6-.4 1.1-.9 1.4-1.5.3-.6.5-1.3.5-2C161.3 201.5 161.1 200.9 160.8 200.2zM159.6 202.2c0 .5-.1.9-.3 1.3-.2.4-.5.6-.9.8-.4.2-.8.3-1.4.3h-1.2v-4.9h1.2c.5 0 1 .1 1.4.3.4.2.7.5.9.8C159.5 201.3 159.6 201.7 159.6 202.2z" class="colorff7545 svgShape"/></g><g fill="#000000" class="color000 svgShape"><path fill="#ffffff" d="M100.9,90.9c0.9,0.9,0.9,2.3,0,3.1c-0.9,0.9-2.3,0.9-3.1,0l-6-6l-6,6c-0.9,0.9-2.3,0.9-3.1,0        c-0.9-0.9-0.9-2.3,0-3.1l6-6l-6-6c-0.9-0.9-0.9-2.3,0-3.1c0.9-0.9,2.2-0.9,3.1,0l6,6l6-6c0.9-0.9,2.3-0.9,3.1,0        c0.9,0.9,0.9,2.2,0,3.1l-6,6L100.9,90.9z" class="colorfff svgShape"/></g><g opacity=".08" fill="#000000" class="color000 svgShape"><path d="M412.7,289.1v41H348c-11.3,0-20.5-9.2-20.5-20.5c0-11.3,9.2-20.5,20.5-20.5H412.7z" fill="#000000" class="color000 svgShape"/></g><g fill="#000000" class="color000 svgShape"><path fill="#ff7545" d="M447.6,307.1c0,11.3-9.2,20.5-20.5,20.5h-77.8c-11.3,0-20.5-9.2-20.5-20.5c0-11.3,9.2-20.5,20.5-20.5h77.8       C438.4,286.6,447.6,295.8,447.6,307.1z" class="colorff7545 svgShape"/></g><g fill="#000000" class="color000 svgShape"><path fill="#ffffff" d="M349.7 301.9c-.2.2-.3.4-.3.7v5.4l-4-5.8c-.3-.4-.7-.5-1-.5h-.2c-.3 0-.6.1-.8.4-.2.2-.3.5-.3.8v7.3c0 .3.1.5.3.7l0 0c.4.3.9.4 1.3 0 .2-.2.3-.4.3-.7v-5.4l4.1 5.9c.1.1.2.3.4.3.2.1.4.1.5.1h.1c.3 0 .6-.1.8-.3.2-.2.4-.5.4-.8v-7.3c0-.3-.1-.5-.3-.7C350.7 301.5 350.1 301.5 349.7 301.9zM360.4 302.2c-.7-.4-1.5-.6-2.4-.6-.9 0-1.7.2-2.4.6-.7.4-1.3 1-1.6 1.7-.4.7-.6 1.5-.6 2.5 0 .9.2 1.7.6 2.4.4.7.9 1.3 1.6 1.7h0c.7.4 1.5.6 2.4.6.9 0 1.7-.2 2.4-.6.7-.4 1.2-1 1.6-1.7.4-.7.6-1.5.6-2.5 0-.9-.2-1.7-.6-2.4C361.7 303.2 361.1 302.6 360.4 302.2zM360.8 306.3c0 .6-.1 1.1-.3 1.5-.2.4-.5.8-1 1-.8.5-2.2.5-3 0-.4-.3-.7-.6-1-1-.2-.5-.3-1-.3-1.5 0-.6.1-1.1.3-1.5.2-.4.5-.8 1-1 .4-.3.9-.4 1.5-.4.6 0 1.1.1 1.5.4.4.3.7.6 1 1C360.7 305.2 360.8 305.7 360.8 306.3zM369.1 301.9c-.2.2-.3.4-.3.7v7.6c0 .3.1.5.3.7l0 0c.2.2.4.3.7.3.3 0 .5-.1.7-.3.2-.2.3-.4.3-.7v-7.6c0-.3-.1-.5-.3-.7C370 301.5 369.4 301.5 369.1 301.9zM379.8 301.9c-.2.2-.3.4-.3.7v5.4l-4-5.8c-.3-.4-.7-.5-1-.5h-.2c-.3 0-.6.1-.8.4-.2.2-.3.5-.3.8v7.3c0 .3.1.5.3.7l0 0c.4.3.9.4 1.3 0 .2-.2.3-.4.3-.7v-5.4l4.1 5.9c.1.1.2.3.4.3.2.1.4.1.5.1h.1c.3 0 .6-.1.8-.3.2-.2.4-.5.4-.8v-7.3c0-.3-.1-.5-.3-.7C380.8 301.5 380.2 301.5 379.8 301.9zM389.9 301.7h-6.1c-.2 0-.5.1-.6.3-.2.2-.3.4-.3.6 0 .2.1.5.3.6.2.2.4.3.6.3h2.1v6.6c0 .3.1.5.3.7h0c.2.2.4.3.7.3.3 0 .5-.1.7-.3.2-.2.3-.4.3-.7v-6.6h2.1c.2 0 .5-.1.6-.3.2-.2.3-.4.3-.6 0-.2-.1-.5-.3-.6C390.4 301.8 390.2 301.7 389.9 301.7zM398.2 303.5c.2 0 .5-.1.6-.3.2-.2.3-.4.3-.6 0-.2-.1-.5-.3-.6-.2-.2-.4-.3-.6-.3h-4.9c-.3 0-.5.1-.7.3-.2.2-.3.4-.3.7v7.4c0 .3.1.5.3.7.2.2.4.3.7.3h4.9c.2 0 .5-.1.6-.3.2-.2.3-.4.3-.6 0-.2-.1-.5-.3-.6-.2-.2-.4-.3-.6-.3h-4v-2h3.5c.2 0 .5-.1.6-.3.2-.2.3-.4.3-.6 0-.2-.1-.5-.3-.6-.2-.2-.4-.3-.6-.3h-3.5v-2H398.2zM408.1 306.1c.3-.5.5-1 .5-1.6 0-.9-.3-1.6-1-2.1-.6-.5-1.5-.8-2.7-.8H402c-.3 0-.5.1-.7.3-.2.2-.3.4-.3.7v7.5c0 .3.1.5.3.7l0 0c.3.3.9.4 1.3 0 .2-.2.3-.4.3-.7v-2.5h2.2c.5 0 .8.1 1 .3.2.2.4.5.4.7.1.3.1.7.1 1.1v.4c0 .3.1.5.3.7.2.2.4.3.7.3.3 0 .5-.1.7-.3.2-.2.3-.4.3-.7v-.6c0-.6-.1-1.2-.3-1.8-.2-.4-.4-.7-.7-1C407.7 306.6 407.9 306.3 408.1 306.1zM406.7 304.6c0 .4-.1.7-.5.9-.3.2-.8.4-1.5.4H403v-2.4h1.8c1 0 1.4.2 1.6.3C406.6 304 406.7 304.2 406.7 304.6zM417.3 301.9c-.2.2-.3.4-.3.7v5.4l-4-5.8c-.3-.4-.7-.5-1-.5h-.2c-.3 0-.6.1-.8.4-.2.2-.3.5-.3.8v7.3c0 .3.1.5.3.7l0 0c.3.3.9.4 1.3 0 .2-.2.3-.4.3-.7v-5.4l4.1 5.9c.1.1.2.3.4.3.2.1.4.1.5.1h.1c.3 0 .6-.1.8-.3.2-.2.4-.5.4-.8v-7.3c0-.3-.1-.5-.3-.7C418.3 301.5 417.7 301.5 417.3 301.9zM427.3 303.5c.2 0 .5-.1.6-.3.2-.2.3-.4.3-.6 0-.2-.1-.5-.3-.6-.2-.2-.4-.3-.6-.3h-4.9c-.3 0-.5.1-.7.3-.2.2-.3.4-.3.7v7.4c0 .3.1.5.3.7.2.2.4.3.7.3h4.9c.2 0 .5-.1.6-.3.2-.2.3-.4.3-.6 0-.2-.1-.5-.3-.6-.2-.2-.4-.3-.6-.3h-4v-2h3.5c.2 0 .5-.1.6-.3.2-.2.3-.4.3-.6 0-.2-.1-.5-.3-.6-.2-.2-.4-.3-.6-.3h-3.5v-2H427.3zM436.8 301.9c-.2-.2-.4-.3-.6-.3h-6.1c-.2 0-.5.1-.6.3-.2.2-.3.4-.3.6 0 .2.1.5.3.6.2.2.4.3.6.3h2.1v6.6c0 .3.1.5.3.7h0c.2.2.4.3.7.3.3 0 .5-.1.7-.3.2-.2.3-.4.3-.7v-6.6h2.1c.2 0 .5-.1.6-.3.2-.2.3-.4.3-.6C437.1 302.3 437 302.1 436.8 301.9z" class="colorfff svgShape"/></g><g fill="#000000" class="color000 svgShape"><path fill="#6193f6" d="M121.7,409.7c-0.2-3,0.5-6.1,2-8.8c0.6-1,1.7-3.1,2.8-3.6c1-0.5,3.7,1.4,4.7,1.9c0-2,0-3.9,0.5-5.8        c3-1.7,5.2-3.7,7.1-6.5c2,3.5,3.4,7.3,4.4,11.1c0.5,2,0.9,4.2,0.4,6.2c-1,4-4.6,6.3-7.8,8.4c-3,1.9-7.2-0.5-10.3-2        C124.1,409.8,123.2,409.7,121.7,409.7z" class="color6193f6 svgShape"/><path fill="#6193f6" d="M172.8,332.9c1.2,4.2,0.6,8.8-0.7,13c-7.4,22.9-34,25.6-46.4,44.4c-4.8,7.1-7.5,15.6-7.7,24.3        c-0.7-8.7,1.7-17.7,6.4-25.2c11.8-19.5,38.5-22,46.8-43.9C172.7,341.6,173.5,337.2,172.8,332.9z" class="color6193f6 svgShape"/><path fill="#6193f6" d="M172.8 332.9c0 0 8.5 18.1-1.9 31.7l-3.2-1v3.2c0 0-6.2 3.4-15.5 1.8v-1.1l4.3-2.8 4-2.7 4.9-5.7 3.6-4.8 2.5-3.9 1.9-8.5L172.8 332.9zM180 396.3c0 0-4.7 3.3-12.8 1.9-8.1-1.4-24.6-18.3-37.9-13.4 2.2-2.1 5-4.9 4.8-4.8 0 0 19.5-10.8 32.9-6.3C180.5 378.3 180 396.3 180 396.3z" class="color6193f6 svgShape"/><path d="M180,396.3c0,0-4.7,3.3-12.8,1.9c-8.1-1.4-24.6-18.3-37.9-13.4c3.2-2,10.2-6,13.9-5.9c7.7,0.2,12,4,20.9,11.4         C173,397.8,180,396.3,180,396.3z" opacity=".1" fill="#000000" class="color000 svgShape"/><path fill="#6193f6" d="M124.2 369.2c0 0 26.7 1.2 33.7-22.5l-9.5-2.1 10-5.7c0 0 .9-16.1 5-21.5C163.5 317.4 107.1 324.1 124.2 369.2zM114.1 408.2c.4-4.4.3-8.8-.4-13.2-2.2-14.3-9.5-24.9-23.3-28.9 3.7 1.1 3.7 1 4.8 1.4 2.2 1 1.5.4 4.5 2.2l1.4.9c.7.7 5.7 3.6 9.5 11.5C114.5 390.3 115.4 399.8 114.1 408.2z" class="color6193f6 svgShape"/><path fill="#6193f6" d="M105.1 374.6c-24.3 6.4-24.8-17.6-24.8-17.6 5.2 5 13.1 2.8 19.5 6.4C106.1 366.9 105.1 374.6 105.1 374.6zM115.7 407.8c-1-15.4-1.9-30-7.8-46 5.5 12.2 7.5 26.7 7.8 40.2C115.7 403.8 115.7 405.8 115.7 407.8z" class="color6193f6 svgShape"/><path fill="#6193f6" d="M109.1 365.2c-3.5-8.4-25.7-18.9-31-24.5-5.3-5.5-3.8-14.3-3.8-14.3 5 4.9 16.5 5.4 29.9 14.4C117.6 349.8 109.1 365.2 109.1 365.2zM110.9 402.2c0 0 .5-19.1-9.9-21.5-10.4-2.4-15 0-15 0l.4 3-3.8-2.8c0 0-7.7 2.2-10.8 1.6 0 0 1.7 5.6 11 7.8S104.6 393 110.9 402.2z" class="color6193f6 svgShape"/><path fill="#6193f6" d="M110.1,400c1.3,2.9,1.6,6.6,0.7,9.4l-0.1-2.4l-0.2-2.3C110.6,404.6,110.1,400.1,110.1,400z" class="color6193f6 svgShape"/><g opacity=".1" fill="#000000" class="color000 svgShape"><path d="M109.1,365.2c-3.5-8.4-25.7-18.9-31-24.5c-5.3-5.5-3.8-14.3-3.8-14.3s-0.2,9.3,7.6,11.4        C89.7,340,106.8,350.3,109.1,365.2z" fill="#000000" class="color000 svgShape"/></g><g fill="#000000" class="color000 svgShape"><path fill="#6193f6" d="M118.7,407.8c-0.5-7.9,0.1-15.8,1.4-23.5c4.1-24.2,15.4-45.7,36-58.8c-3.1,2.4-6.3,4.7-9.1,7.5       c-0.7,0.7-1.4,1.3-2.1,2.1c-0.1,0.1-3.6,3.6-5.8,6.6c-11.9,15.2-18.1,35-19.9,54.4C118.9,399.9,118.7,403.8,118.7,407.8z" class="color6193f6 svgShape"/></g><g fill="#000000" class="color000 svgShape"><path fill="#ffffff" d="M131.6,439.4h-21.9c-1.3,0-2.4-0.9-2.6-2.1l-5.7-25.8h38.4l-5.7,25.8C134,438.5,132.9,439.4,131.6,439.4z" class="colorfff svgShape"/></g><g fill="#000000" class="color000 svgShape"><path fill="#c6e2fa" d="M134.6,435.7l-0.3,1.6c-0.3,1.2-1.4,2.1-2.6,2.1h-21.9c-1.3,0-2.4-0.9-2.6-2.1l-5.7-25.8h3.7l1.4,6.5       c2.3,10.4,11.5,17.8,22.1,17.8H134.6z" class="colorc6e2fa svgShape"/></g><g fill="#000000" class="color000 svgShape"><path fill="#060405" d="M131.6,439.9h-21.9c-1.5,0-2.8-1-3.1-2.5l-5.8-26.4h39.7l-5.8,26.4C134.4,438.8,133.1,439.9,131.6,439.9z        M102.1,411.9l5.5,25.2c0.2,1,1.1,1.7,2.1,1.7h21.9c1,0,1.9-0.7,2.1-1.7l5.5-25.2H102.1z" class="color060405 svgShape"/></g><g fill="#000000" class="color000 svgShape"><path fill="#ffffff" d="M142.6,412.8H98.8c-0.6,0-1.1-0.4-1.2-1l-1.3-6.5c-0.2-0.8,0.4-1.5,1.2-1.5h46.4c0.8,0,1.4,0.7,1.2,1.5       l-1.3,6.5C143.7,412.4,143.2,412.8,142.6,412.8z" class="colorfff svgShape"/></g><g fill="#000000" class="color000 svgShape"><path fill="#060405" d="M142.6,413.3H98.8c-0.8,0-1.5-0.6-1.7-1.4l-1.3-6.5c-0.2-1.1,0.6-2.1,1.7-2.1h46.4c0.5,0,1,0.2,1.3,0.6       c0.3,0.4,0.5,0.9,0.4,1.4l-1.3,6.5C144.2,412.7,143.5,413.3,142.6,413.3z M96.9,404.6c-0.4,0.5-0.1,0.6,1.1,7.1       c0.1,0.3,0.4,0.6,0.7,0.6h43.9c0.4,0,0.7-0.3,0.7-0.6c1.2-6.6,1.5-6.6,1.1-7.1c-0.1-0.2-0.3-0.3-0.6-0.3       C94.7,404.4,97.3,404.1,96.9,404.6z" class="color060405 svgShape"/></g></g><g fill="#000000" class="color000 svgShape"><path fill="#c6e2fa" d="M398.5 376.3h-35.2c-.2 0-.4-.2-.4-.4s.2-.4.4-.4h35.2c.2 0 .4.2.4.4S398.7 376.3 398.5 376.3zM398.5 393.7h-35.2c-.2 0-.4-.2-.4-.4s.2-.4.4-.4h35.2c.2 0 .4.2.4.4S398.7 393.7 398.5 393.7zM392.1 385h-49.8c-.2 0-.4-.2-.4-.4s.2-.4.4-.4h49.8c.2 0 .4.2.4.4S392.4 385 392.1 385z" class="colorc6e2fa svgShape"/><path fill="#c6e2fa" d="M370.6 376.3c-.2 0-.4-.2-.4-.4v-7.4c0-.2.2-.4.4-.4s.4.2.4.4v7.4C371 376.1 370.8 376.3 370.6 376.3zM383 385c-.2 0-.4-.2-.4-.4v-8.7c0-.2.2-.4.4-.4s.4.2.4.4v8.7C383.3 384.9 383.2 385 383 385zM373.6 393.5c-.2 0-.4-.2-.4-.4v-8.4c0-.2.2-.4.4-.4s.4.2.4.4v8.4C373.9 393.3 373.8 393.5 373.6 393.5z" class="colorc6e2fa svgShape"/></g><g fill="#000000" class="color000 svgShape"><path fill="#c6e2fa" d="M121.3 130H96.6c-.2 0-.4-.2-.4-.4s.2-.4.4-.4h24.7c.2 0 .4.2.4.4S121.5 130 121.3 130zM121.3 142.3H96.6c-.2 0-.4-.2-.4-.4s.2-.4.4-.4h24.7c.2 0 .4.2.4.4S121.5 142.3 121.3 142.3zM116.8 136.2H81.9c-.2 0-.4-.2-.4-.4s.2-.4.4-.4h34.9c.2 0 .4.2.4.4S117 136.2 116.8 136.2z" class="colorc6e2fa svgShape"/><path fill="#c6e2fa" d="M101.7 130c-.2 0-.4-.2-.4-.4v-5.2c0-.2.2-.4.4-.4s.4.2.4.4v5.2C102.1 129.9 101.9 130 101.7 130zM110.4 136.2c-.2 0-.4-.2-.4-.4v-6.1c0-.2.2-.4.4-.4s.4.2.4.4v6.1C110.8 136 110.6 136.2 110.4 136.2zM103.8 142.1c-.2 0-.4-.2-.4-.4v-5.9c0-.2.2-.4.4-.4s.4.2.4.4v5.9C104.2 141.9 104 142.1 103.8 142.1z" class="colorc6e2fa svgShape"/></g></g></svg>